<svg width="602" height="196" viewBox="0 0 602 196" fill="none" xmlns="http://www.w3.org/2000/svg">
<path d="M6.09375 117V47.1562H52.3125V59.3438H20.8125V78.5156H49.2188V90.4688H20.8125V117H6.09375ZM72.1688 47.1562V117H57.45V47.1562H72.1688ZM137.963 47.1562V117H125.166L94.8375 73.0781H94.275V117H79.5563V47.1562H92.4938L122.634 91.0781H123.244V47.1562H137.963ZM171.225 117.984C162.756 117.984 155.991 116.047 150.928 112.172C145.897 108.297 143.272 102.594 143.053 95.0625H157.35C157.6 98.5625 158.975 101.203 161.475 102.984C164.006 104.734 167.194 105.609 171.038 105.609C174.788 105.609 177.788 104.812 180.038 103.219C182.319 101.625 183.459 99.5469 183.459 96.9844C183.459 94.6406 182.428 92.8438 180.366 91.5938C178.303 90.3125 175.366 89.2188 171.553 88.3125L163.913 86.4375C158.038 85.0312 153.397 82.7969 149.991 79.7344C146.616 76.6406 144.928 72.5156 144.928 67.3594C144.928 63.1406 146.069 59.4531 148.35 56.2969C150.631 53.1094 153.756 50.6406 157.725 48.8906C161.725 47.1094 166.272 46.2188 171.366 46.2188C176.553 46.2188 181.084 47.1094 184.959 48.8906C188.834 50.6719 191.85 53.1406 194.006 56.2969C196.194 59.4531 197.319 63.0938 197.381 67.2188H183.131C182.881 64.5 181.725 62.375 179.663 60.8438C177.6 59.3125 174.803 58.5469 171.272 58.5469C167.678 58.5469 164.913 59.2969 162.975 60.7969C161.038 62.2656 160.069 64.1406 160.069 66.4219C160.069 68.8906 161.147 70.7656 163.303 72.0469C165.459 73.2969 168.053 74.2812 171.084 75L177.319 76.5469C181.381 77.4531 184.991 78.7812 188.147 80.5312C191.303 82.25 193.788 84.4688 195.6 87.1875C197.413 89.875 198.319 93.1562 198.319 97.0312C198.319 103.438 195.928 108.531 191.147 112.312C186.366 116.094 179.725 117.984 171.225 117.984ZM234.722 117.938C228.503 117.938 222.941 116.531 218.034 113.719C213.128 110.906 209.253 106.828 206.409 101.484C203.597 96.1406 202.191 89.6875 202.191 82.125C202.191 74.5 203.613 68.0156 206.456 62.6719C209.331 57.3281 213.222 53.25 218.128 50.4375C223.066 47.625 228.597 46.2188 234.722 46.2188C240.128 46.2188 244.988 47.2188 249.3 49.2188C253.644 51.2188 257.191 54.1094 259.941 57.8906C262.691 61.6719 264.378 66.25 265.003 71.625H250.097C249.534 67.7812 247.894 64.7656 245.175 62.5781C242.456 60.3594 239.081 59.25 235.05 59.25C229.675 59.25 225.347 61.25 222.066 65.25C218.784 69.2188 217.144 74.8438 217.144 82.125C217.144 89.5625 218.784 95.2188 222.066 99.0938C225.378 102.969 229.691 104.906 235.003 104.906C238.909 104.906 242.222 103.875 244.941 101.812C247.691 99.75 249.409 96.8594 250.097 93.1406H265.003C264.472 97.4219 262.941 101.453 260.409 105.234C257.909 109.016 254.488 112.078 250.144 114.422C245.831 116.766 240.691 117.938 234.722 117.938ZM270.844 117V47.1562H298.312C306.25 47.1562 312.406 49.2344 316.781 53.3906C321.188 57.5469 323.391 63.0781 323.391 69.9844C323.391 74.7656 322.328 78.8594 320.203 82.2656C318.078 85.6406 315.031 88.1719 311.062 89.8594L325.875 117H309.562L296.344 92.25H285.562V117H270.844ZM285.562 80.3906H295.547C303.984 80.3906 308.203 76.9219 308.203 69.9844C308.203 66.5156 307.156 63.8594 305.062 62.0156C302.969 60.1719 299.781 59.25 295.5 59.25H285.562V80.3906ZM360.591 117.938C354.403 117.938 348.841 116.531 343.903 113.719C338.966 110.906 335.059 106.828 332.184 101.484C329.309 96.1406 327.872 89.6875 327.872 82.125C327.872 74.5 329.309 68.0156 332.184 62.6719C335.059 57.3281 338.966 53.25 343.903 50.4375C348.841 47.625 354.403 46.2188 360.591 46.2188C366.778 46.2188 372.325 47.625 377.231 50.4375C382.169 53.25 386.075 57.3281 388.95 62.6719C391.825 68.0156 393.263 74.5 393.263 82.125C393.263 89.75 391.825 96.2344 388.95 101.578C386.075 106.891 382.169 110.953 377.231 113.766C372.325 116.547 366.778 117.938 360.591 117.938ZM342.825 82.125C342.825 89.5 344.434 95.1406 347.653 99.0469C350.903 102.953 355.216 104.906 360.591 104.906C365.934 104.906 370.216 102.953 373.434 99.0469C376.684 95.1406 378.309 89.5 378.309 82.125C378.309 74.7188 376.684 69.0625 373.434 65.1562C370.216 61.2188 365.934 59.25 360.591 59.25C355.216 59.25 350.903 61.2188 347.653 65.1562C344.434 69.0625 342.825 74.7188 342.825 82.125ZM399.431 117V47.1562H414.15V104.812H444.103V117H399.431ZM449.194 117V47.1562H463.913V104.812H493.866V117H449.194Z" fill="black"/>
<path d="M602 117C602 103.792 598.689 90.7951 592.368 79.1975C586.048 67.5999 576.921 57.7721 565.822 50.6127C554.723 43.4534 542.006 39.1911 528.834 38.2157C515.662 37.2403 502.456 39.583 490.424 45.0294L523 117H602Z" fill="white"/>
</svg>
